<svg xmlns="http://www.w3.org/2000/svg" version="1.1" xmlns:xlink="http://www.w3.org/1999/xlink" width="512" height="512" x="0" y="0" viewBox="0 0 512 512" style="enable-background:new 0 0 512 512" xml:space="preserve"><g><linearGradient id="a" x1="142.544" x2="391.124" y1="523.663" y2="93.11" gradientUnits="userSpaceOnUse"><stop stop-opacity="1" stop-color="#fb7000" offset="0"></stop><stop stop-opacity="1" stop-color="#ffad6b" offset="1"></stop></linearGradient><path fill="url(#a)" d="M478.776 319.377c-35.558-21.097-63.722-30.504-91.321-30.504-19.228 0-38.733 4.573-60.819 14.476-19.106-13.346-40.128-22.915-62.286-28.443 35.653-17.118 60.337-53.562 60.389-95.672h1.269c11.642 0 21.113-9.471 21.113-21.112v-4.682c0-8.721-5.316-16.224-12.878-19.439v-.935c0-27.182-9.711-53.642-27.344-74.506-15.951-18.875-37.493-32.162-61.201-37.933v-.36C245.698 9.644 237.054 1 226.429 1H210.64c-10.624 0-19.268 8.644-19.268 19.268v.36c-23.708 5.77-45.249 19.058-61.2 37.933-17.633 20.864-27.344 47.324-27.344 74.506V134c-7.562 3.215-12.879 10.718-12.879 19.44v4.682c0 11.642 9.471 21.112 21.112 21.112h1.271c.052 42.148 24.782 78.62 60.488 95.718C95.3 294.403 35.571 362.055 29.364 444.786c-.431 5.738 1.553 11.434 5.442 15.626s9.421 6.598 15.176 6.598h273.845a95.758 95.758 0 0 0 3.181 2.398l55.777 40.088c1.395 1.003 3.032 1.504 4.669 1.504s3.274-.501 4.669-1.504l55.775-40.088c22.763-16.36 34.795-39.825 34.795-67.856v-75.295a7.995 7.995 0 0 0-3.917-6.88zM308.059 451.01h-81.524v-69.142l59.903-82.687a173.18 173.18 0 0 1 23.593 12.352 356.357 356.357 0 0 0-13.897 7.844 7.998 7.998 0 0 0-3.918 6.88v75.295c-.001 18.796 5.417 35.534 15.843 49.458zm-89.524-85.371-52.298-72.191a171.772 171.772 0 0 1 52.298-8.141c17.986 0 35.575 2.746 52.343 8.08zm-8 16.229v69.142H103.826c13.261-44.494 18.323-89.492 15.057-133.984a174.731 174.731 0 0 1 31.797-17.78zM265.297 45l-4.547 68.112a8.001 8.001 0 0 0 15.965 1.067l3.944-59.082c22.921 18.271 37.341 46.279 37.568 77.231h-72.529V37.146A99.567 99.567 0 0 1 265.297 45zM210.64 17h15.789c1.771 0 3.269 1.496 3.269 3.268v112.06h-22.325V20.268c0-1.772 1.496-3.268 3.267-3.268zm-54.228 38.097 3.944 59.081a8 8 0 1 0 15.965-1.067L171.773 45a99.628 99.628 0 0 1 19.599-7.854v95.181h-72.527c.227-30.951 14.646-58.959 37.567-77.23zM105.95 158.122v-4.682c0-2.771 2.341-5.113 5.112-5.113h214.945c2.771 0 5.113 2.342 5.113 5.113v4.682c0 2.771-2.342 5.112-5.113 5.112H111.062c-2.771 0-5.112-2.34-5.112-5.112zm22.383 21.112h180.406c-.072 49.678-40.508 90.072-90.203 90.072-49.695.001-90.132-40.394-90.203-90.072zM46.536 449.53c-.885-.953-1.317-2.213-1.217-3.546 3.486-46.468 25.413-87.743 58.228-116.822 1.668 40.495-3.846 81.386-16.447 121.847H49.982c-1.338.001-2.562-.525-3.446-1.479zm420.158-47.978c0 22.664-9.729 41.636-28.133 54.864l-51.106 36.732-51.108-36.732c-18.403-13.228-28.131-32.199-28.131-54.864v-70.71c60.135-34.754 98.344-34.754 158.479 0v70.71zm-79.24-84.734c-19.337 0-38.797 5.756-63.093 18.66a8.002 8.002 0 0 0-4.247 7.065v59.008c0 18.94 7.797 34.148 23.176 45.203l39.496 28.386c1.395 1.003 3.032 1.504 4.669 1.504s3.274-.501 4.669-1.504l39.494-28.386c15.38-11.055 23.179-26.264 23.179-45.203v-59.007a8 8 0 0 0-4.247-7.065c-24.299-12.905-43.758-18.661-63.096-18.661 0 0 .001 0 0 0zm51.342 84.734c0 13.687-5.402 24.223-16.517 32.211l-34.825 25.03-34.827-25.03c-11.112-7.987-16.514-18.524-16.514-32.211v-54.148c38.289-19.41 64.392-19.409 102.683.001zm-59.484-5.251 30.799-31.088a8 8 0 0 1 11.367 11.261l-36.384 36.725a7.978 7.978 0 0 1-5.684 2.369 7.976 7.976 0 0 1-5.584-2.271l-20.295-19.783a8 8 0 0 1 11.167-11.457z" opacity="1" data-original="url(#a)"></path></g></svg>