<svg xmlns="http://www.w3.org/2000/svg" version="1.1" xmlns:xlink="http://www.w3.org/1999/xlink" width="512" height="512" x="0" y="0" viewBox="0 0 64 64" style="enable-background:new 0 0 512 512" xml:space="preserve" class=""><g><linearGradient id="a" x1="4" x2="60" y1="31.928" y2="31.928" gradientUnits="userSpaceOnUse"><stop stop-opacity="1" stop-color="#fb7000" offset="0"></stop><stop stop-opacity="1" stop-color="#ffde00" offset="1"></stop></linearGradient><path fill="url(#a)" d="M60 32C58.468 69.136 5.538 69.145 4 32A28.031 28.031 0 0 1 32 4a1 1 0 0 1 0 2A26.03 26.03 0 0 0 6 32c1.423 34.484 50.573 34.491 52 0a1 1 0 0 1 2 0zM33 11.187V7.813a1 1 0 0 0-2 0v3.375a1 1 0 0 0 2 0zm-11.924 2.89a1.006 1.006 0 0 0 .865-1.5l-.65-1.125a1 1 0 0 0-1.732 1c.345.513.733 1.699 1.517 1.625zm-7.499 6.131-1.125-.649a1 1 0 0 0-1 1.733c.338.154 1.237.83 1.624.783a1.006 1.006 0 0 0 .501-1.866zM12.187 32a1 1 0 0 0-1-1H7.813a1 1 0 0 0 0 2h3.375a1 1 0 0 0 1-1zm-.234 12.575c.384.05 1.293-.63 1.625-.784a1 1 0 0 0-1.001-1.732l-1.125.65a1.006 1.006 0 0 0 .501 1.866zm8.255 5.848-.649 1.125a1 1 0 0 0 1.733 1l.649-1.125a1 1 0 0 0-1.732-1zM31 52.813v3.375a1 1 0 0 0 2 0v-3.375a1 1 0 0 0-2 0zm11.425-2.756a1 1 0 0 0-.366 1.366l.65 1.125a1 1 0 1 0 1.732-1l-.65-1.125a.998.998 0 0 0-1.366-.366zm8.998-7.998a1 1 0 0 0-1 1.732c.337.155 1.236.832 1.624.784a1.006 1.006 0 0 0 .501-1.866zM57.188 32a1 1 0 0 0-1-1h-3.376a1 1 0 0 0 0 2h3.376a1 1 0 0 0 1-1zm-25.386-1.246L58.228 8.732a1.002 1.002 0 0 1 1.4 1.419l-27 31.5a1.006 1.006 0 0 1-1.56-.051l-13.5-18a1.004 1.004 0 0 1 1.355-1.432zm-.489 2.078-8.642-5.762 9.25 12.332 18.433-21.505-17.846 14.871a1.002 1.002 0 0 1-1.195.064z" opacity="1" data-original="url(#a)"></path></g></svg>