<svg xmlns="http://www.w3.org/2000/svg" version="1.1" xmlns:xlink="http://www.w3.org/1999/xlink" width="512" height="512" x="0" y="0" viewBox="0 0 64 64" style="enable-background:new 0 0 512 512" xml:space="preserve" class=""><g><linearGradient id="a" x1=".333" x2="63.723" y1="64.667" y2="1.277" gradientUnits="userSpaceOnUse"><stop stop-opacity="1" stop-color="#fb7000" offset="0"></stop><stop stop-opacity="1" stop-color="#feb275" offset="1"></stop></linearGradient><linearGradient xlink:href="#a" id="b" x1="-1.667" x2="61.723" y1="62.667" y2="-.723"></linearGradient><linearGradient xlink:href="#a" id="c" x1="-7.167" x2="56.223" y1="57.167" y2="-6.223"></linearGradient><linearGradient xlink:href="#a" id="d" x1="14.833" x2="78.223" y1="79.167" y2="15.777"></linearGradient><linearGradient xlink:href="#a" id="e" x1="2.833" x2="66.223" y1="67.167" y2="3.777"></linearGradient><linearGradient xlink:href="#a" id="f" x1="6.333" x2="69.723" y1="70.667" y2="7.277"></linearGradient><linearGradient xlink:href="#a" id="g" x1="5.333" x2="68.723" y1="69.667" y2="6.277"></linearGradient><linearGradient xlink:href="#a" id="h" x1="25.333" x2="88.723" y1="89.667" y2="26.277"></linearGradient><linearGradient xlink:href="#a" id="i" x1="15.833" x2="79.223" y1="80.167" y2="16.777"></linearGradient><linearGradient xlink:href="#a" id="j" x1="10.833" x2="74.223" y1="75.167" y2="11.777"></linearGradient><linearGradient xlink:href="#a" id="k" x1="14.333" x2="77.723" y1="78.667" y2="15.277"></linearGradient><linearGradient xlink:href="#a" id="l" x1="13.333" x2="76.723" y1="77.667" y2="14.277"></linearGradient><linearGradient xlink:href="#a" id="m" x1=".583" x2="63.973" y1="64.917" y2="1.527"></linearGradient><linearGradient xlink:href="#a" id="n" x1="8.583" x2="71.973" y1="72.917" y2="9.527"></linearGradient><linearGradient xlink:href="#a" id="o" x1="20.991" x2="84.38" y1="85.324" y2="21.935"></linearGradient><linearGradient xlink:href="#a" id="p" x1="18.583" x2="81.973" y1="82.917" y2="19.527"></linearGradient><linearGradient xlink:href="#a" id="q" x1="20.583" x2="83.973" y1="84.917" y2="21.527"></linearGradient><linearGradient xlink:href="#a" id="r" x1="-2.27" x2="61.119" y1="62.063" y2="-1.326"></linearGradient><g data-name="Layer 14"><path fill="url(#a)" d="M13 49h-2V24h42v18h-2V26H13z" opacity="1" data-original="url(#a)"></path><path fill="url(#b)" d="M53 34H11V24h42zm-40-2h38v-6H13z" opacity="1" data-original="url(#b)"></path><path fill="url(#b)" d="M11 28h42v2H11z" opacity="1" data-original="url(#b)"></path><path fill="url(#c)" d="M49 22H15v-8h34zm-32-2h30v-4H17z" opacity="1" data-original="url(#c)"></path><path fill="url(#d)" d="M1 61h62v2H1z" opacity="1" data-original="url(#d)" class=""></path><path fill="url(#e)" d="M23 63H7V47h16zM9 61h12V49H9z" opacity="1" data-original="url(#e)"></path><path fill="url(#f)" d="M18 58h1v1h-1z" opacity="1" data-original="url(#f)"></path><path fill="url(#g)" d="M16 58h1v1h-1z" opacity="1" data-original="url(#g)"></path><path fill="url(#h)" d="M56 63a4 4 0 1 1 4-4 4 4 0 0 1-4 4zm0-6a2 2 0 1 0 2 2 2 2 0 0 0-2-2z" opacity="1" data-original="url(#h)"></path><path fill="url(#i)" d="M37 63a4 4 0 1 1 4-4 4 4 0 0 1-4 4zm0-6a2 2 0 1 0 2 2 2 2 0 0 0-2-2z" opacity="1" data-original="url(#i)"></path><path fill="url(#j)" d="M49 53H33V37h16zm-14-2h12V39H35z" opacity="1" data-original="url(#j)"></path><path fill="url(#k)" d="M44 48h1v1h-1z" opacity="1" data-original="url(#k)"></path><path fill="url(#l)" d="M42 48h1v1h-1z" opacity="1" data-original="url(#l)"></path><path fill="url(#m)" d="M18 54h-6v-7h6zm-4-2h2v-3h-2z" opacity="1" data-original="url(#m)"></path><path fill="url(#n)" d="M44 44h-6v-7h6zm-4-2h2v-3h-2z" opacity="1" data-original="url(#n)"></path><path fill="url(#o)" d="M60.63 52H54a1 1 0 0 1-1-1v-4a1 1 0 0 1 1-1h5.13a1 1 0 0 1 .937.648l1.5 4A1 1 0 0 1 60.63 52zM55 50h4.187l-.75-2H55z" opacity="1" data-original="url(#o)"></path><path fill="url(#p)" d="M62 60h-3v-2h1v-5.818L57.307 45H52v8H32v5h2v2h-4v-9h20v-8h8.693L62 51.818z" opacity="1" data-original="url(#p)"></path><path fill="url(#q)" d="M40 58h13v2H40z" opacity="1" data-original="url(#q)"></path><circle cx="37" cy="59" r="1" fill="url(#i)" opacity="1" data-original="url(#i)"></circle><circle cx="56" cy="59" r="1" fill="url(#h)" opacity="1" data-original="url(#h)"></circle><path fill="url(#r)" d="M57 42V15.618L31.992 3.114 6 15.628V62a1 1 0 0 1-2 0V15a1 1 0 0 1 .566-.9l27-13a1 1 0 0 1 .881.007l26 13A1 1 0 0 1 59 15v27z" opacity="1" data-original="url(#r)"></path></g></g></svg>